<svg xmlns="http://www.w3.org/2000/svg" xmlns:xlink="http://www.w3.org/1999/xlink" id="svg" width="400" height="390.6218144750255" viewBox="0, 0, 400,390.6218144750255"><g id="svgg"><path id="path0" d="M93.374 0.538 C 82.133 3.097,76.768 15.883,82.883 25.544 C 83.471 26.474,92.954 35.831,103.954 46.338 C 114.955 56.844,123.955 65.533,123.955 65.646 C 123.955 65.924,67.688 124.942,67.274 125.098 C 67.094 125.166,57.893 116.579,46.827 106.018 C 24.975 85.161,24.479 84.765,19.269 84.066 C 5.163 82.172,-4.945 98.290,3.252 109.605 C 5.752 113.057,293.377 387.139,295.923 388.496 C 308.433 395.164,323.033 383.609,319.504 369.834 C 318.359 365.365,317.194 364.073,296.444 344.255 C 285.561 333.861,276.606 325.210,276.544 325.031 C 276.431 324.706,332.492 265.763,333.144 265.520 C 333.332 265.450,342.534 274.038,353.593 284.605 C 377.228 307.188,376.178 306.422,383.486 306.422 C 396.069 306.422,403.684 294.297,398.149 283.075 C 396.706 280.148,395.074 278.572,252.269 142.243 C 172.838 66.413,107.142 3.852,106.277 3.218 C 102.846 0.702,97.516 -0.405,93.374 0.538 M159.327 99.229 C 166.111 105.706,171.662 111.129,171.662 111.281 C 171.662 111.598,115.508 170.587,115.053 170.749 C 114.888 170.807,108.107 164.508,99.985 156.749 L 85.216 142.643 86.951 140.688 C 87.904 139.613,100.695 126.150,115.373 110.770 L 142.061 82.806 144.527 85.129 C 145.883 86.407,152.543 92.752,159.327 99.229 M204.881 142.675 C 212.288 149.720,218.681 155.791,219.086 156.166 C 219.773 156.803,164.018 216.310,162.735 216.310 C 162.560 216.310,155.787 209.996,147.684 202.279 L 132.952 188.248 134.468 186.503 C 144.949 174.441,189.878 128.559,190.604 129.178 C 191.049 129.557,197.474 135.631,204.881 142.675 M250.619 186.343 C 257.539 192.960,264.183 199.299,265.383 200.429 L 267.565 202.484 240.572 230.804 C 225.725 246.380,212.887 259.829,212.044 260.692 L 210.509 262.262 195.754 248.176 C 187.638 240.429,180.962 233.970,180.917 233.824 C 180.809 233.470,237.437 174.111,237.775 174.224 C 237.919 174.272,243.699 179.726,250.619 186.343 M300.057 233.559 C 307.896 241.028,314.523 247.396,314.785 247.711 C 315.196 248.206,281.755 283.875,260.784 305.310 L 258.283 307.867 243.495 293.747 C 235.362 285.982,228.768 279.445,228.843 279.221 C 229.060 278.568,285.189 219.812,285.512 219.900 C 285.673 219.944,292.218 226.090,300.057 233.559 " stroke="none" fill="#000000" fill-rule="evenodd"/></g></svg>